<svg xmlns="http://www.w3.org/2000/svg" width="41" height="40" viewBox="0 0 41 40" fill="none">
<path d="M27.1768 16.3356L18.4076 10.4894C18.1874 10.3425 17.9315 10.2582 17.6672 10.2454C17.4028 10.2325 17.14 10.2918 16.9066 10.4167C16.6733 10.5416 16.4783 10.7275 16.3424 10.9546C16.2064 11.1817 16.1347 11.4415 16.1349 11.7061V23.3984C16.1347 23.6631 16.2064 23.9228 16.3424 24.1499C16.4783 24.377 16.6733 24.563 16.9066 24.6879C17.14 24.8128 17.4028 24.872 17.6672 24.8592C17.9315 24.8464 18.1874 24.7621 18.4076 24.6152L27.1768 18.769C27.3773 18.6356 27.5417 18.4547 27.6554 18.2424C27.7691 18.0302 27.8286 17.7931 27.8286 17.5523C27.8286 17.3115 27.7691 17.0744 27.6554 16.8621C27.5417 16.6499 27.3773 16.469 27.1768 16.3356ZM18.1547 22.5178V13.1687L25.2436 17.7061L18.1547 22.5178ZM36.5769 4.39844H4.42308C3.64783 4.39844 2.90433 4.7064 2.35615 5.25459C1.80797 5.80277 1.5 6.54627 1.5 7.32151V27.7831C1.5 28.5583 1.80797 29.3018 2.35615 29.85C2.90433 30.3982 3.64783 30.7061 4.42308 30.7061H36.5769C37.3522 30.7061 38.0957 30.3982 38.6438 29.85C39.192 29.3018 39.5 28.5583 39.5 27.7831V7.32151C39.5 6.54627 39.192 5.80277 38.6438 5.25459C38.0957 4.7064 37.3522 4.39844 36.5769 4.39844ZM37.7223 28.72L3.72724 28.6659L3.52194 6.35845L37.517 6.41261L37.7223 28.72Z" fill="#1A181E"/>
<path fill-rule="evenodd" clip-rule="evenodd" d="M37.7223 28.72L3.72724 28.6659L3.52194 6.35845L37.517 6.41261L37.7223 28.72ZM18.4076 10.4894L27.1768 16.3356C27.3773 16.469 27.5417 16.6499 27.6554 16.8621C27.7691 17.0744 27.8286 17.3115 27.8286 17.5523C27.8286 17.7931 27.7691 18.0302 27.6554 18.2424C27.5417 18.4547 27.3773 18.6356 27.1768 18.769L18.4076 24.6152C18.1874 24.7621 17.9315 24.8464 17.6672 24.8592C17.4028 24.872 17.14 24.8128 16.9066 24.6879C16.6733 24.563 16.4783 24.377 16.3424 24.1499C16.2064 23.9228 16.1347 23.6631 16.1349 23.3984V11.7061C16.1347 11.4415 16.2064 11.1817 16.3424 10.9546C16.4783 10.7275 16.6733 10.5416 16.9066 10.4167C17.14 10.2918 17.4028 10.2325 17.6672 10.2454C17.9315 10.2582 18.1874 10.3425 18.4076 10.4894Z" fill="#DF1E5B" fill-opacity="0.4"/>
<rect x="1.5" y="33.6014" width="38" height="2" rx="1" fill="#1A181E"/>
</svg>