<svg id="Layer_1" data-name="Layer 1" xmlns="http://www.w3.org/2000/svg" viewBox="0 0 288.86 80.7"><defs><style>.cls-1{fill:#146eb4;}</style></defs><path d="M129.15,19.93V58.75a1.27,1.27,0,0,1-1.41,1.41h-4.85a1.28,1.28,0,0,1-1.41-1.41v-2.1c-2.12,2.69-5.31,4.31-9.65,4.31-8,0-14.51-6.82-14.51-15.67s6.56-15.68,14.51-15.68c4.34,0,7.53,1.62,9.65,4.31v-14a1.28,1.28,0,0,1,1.41-1.42h4.85A1.28,1.28,0,0,1,129.15,19.93Zm-7.67,25.36a8.24,8.24,0,1,0-16.48,0,8.24,8.24,0,1,0,16.48,0Z"/><path d="M157,30.41a1.28,1.28,0,0,1,1.41,1.42V58.75A1.27,1.27,0,0,1,157,60.16h-4.85a1.27,1.27,0,0,1-1.41-1.41V57.1c-1.67,2.52-4.4,3.86-8.09,3.86-5.54,0-9.67-4.25-9.67-11.54V31.83a1.28,1.28,0,0,1,1.41-1.42h4.85a1.28,1.28,0,0,1,1.41,1.42v17c0,3.41,2,5,4.72,5,3,0,5.37-1.74,5.37-6.21V31.83a1.28,1.28,0,0,1,1.41-1.42Z"/><path d="M187.81,60.16h-5.65a1.94,1.94,0,0,1-1.7-.86l-9.77-12.57v12a1.28,1.28,0,0,1-1.41,1.41h-4.85A1.27,1.27,0,0,1,163,58.75V19.93a1.28,1.28,0,0,1,1.41-1.42h4.85a1.28,1.28,0,0,1,1.41,1.42V43.49l9.18-12.21a1.9,1.9,0,0,1,1.69-.87h5.7c1.16,0,1.55.76.85,1.71l-10,13,10.55,13.31C189.36,59.39,189,60.16,187.81,60.16Z"/><path d="M203.6,29.61c6.58,0,12.11,3.91,12.11,11.66V58.75a1.27,1.27,0,0,1-1.41,1.41h-4.67a1.28,1.28,0,0,1-1.42-1.41V57.59c-1.71,2.08-4.28,3.37-8.06,3.37-5.29,0-10-3.1-10-9.35s4.73-9.36,10-9.36a11.73,11.73,0,0,1,8.06,2.64V41.72c0-3.53-1.78-5-4.61-5-2.24,0-3.89.94-4.4,2.54-.31.81-.62,1.27-1.47,1.27H193a1.27,1.27,0,0,1-1.41-1.48c.74-6.08,5.95-9.44,12-9.44Zm4.61,22c0-2.29-2.08-3.7-5.45-3.7s-5,1.56-5,3.7,1.58,3.7,5,3.7S208.21,53.75,208.21,51.61Z"/><path d="M232.69,29.61c6.58,0,12.11,3.91,12.11,11.66V58.75a1.27,1.27,0,0,1-1.41,1.41h-4.67a1.28,1.28,0,0,1-1.42-1.41V57.59C235.59,59.67,233,61,229.24,61c-5.29,0-10-3.1-10-9.35s4.73-9.36,10-9.36a11.73,11.73,0,0,1,8.06,2.64V41.72c0-3.53-1.78-5-4.61-5-2.24,0-3.89.94-4.4,2.54-.31.81-.62,1.27-1.47,1.27h-4.76a1.27,1.27,0,0,1-1.41-1.48c.74-6.08,5.95-9.44,12-9.44Zm4.61,22c0-2.29-2.08-3.7-5.45-3.7s-5,1.56-5,3.7,1.58,3.7,5,3.7S237.3,53.75,237.3,51.61Z"/><path d="M264.45,29.61c5.53,0,9.66,4.25,9.66,11.54v17.6a1.27,1.27,0,0,1-1.41,1.41h-4.85a1.27,1.27,0,0,1-1.41-1.41v-17c0-3.4-2-5-4.72-5-3,0-5.37,1.74-5.37,6.22V58.75a1.27,1.27,0,0,1-1.41,1.41h-4.85a1.27,1.27,0,0,1-1.41-1.41V31.83a1.28,1.28,0,0,1,1.41-1.42h4.85a1.28,1.28,0,0,1,1.41,1.42v1.64c1.67-2.52,4.4-3.86,8.1-3.86Z"/><path class="cls-1" d="M55.4,30.1a15.1,15.1,0,0,1-30.11,0,3.1,3.1,0,1,1,6.18-.48,8.91,8.91,0,0,0,17.76,0,3.09,3.09,0,1,1,6.17.48Z"/><path class="cls-1" d="M40.35,0A40.35,40.35,0,1,0,80.7,40.35,40.34,40.34,0,0,0,40.35,0ZM61.88,55.63A5.92,5.92,0,0,1,56,61.55H24.73a5.93,5.93,0,0,1-5.92-5.92V25.07a5.92,5.92,0,0,1,5.92-5.91H56a5.92,5.92,0,0,1,5.91,5.91Z"/><g id="surface1"><path d="M281.51,14.93a7.34,7.34,0,1,0,7.35,7.34A7.34,7.34,0,0,0,281.51,14.93Zm0,1.12a6.22,6.22,0,1,1-6.21,6.22A6.21,6.21,0,0,1,281.51,16.05Zm-2.26,2.83v6.78h1.13V23.17h1.47l1.59,2.49h1.13l-1.64-2.58.51-.14a1.79,1.79,0,0,0,.79-.5,1.39,1.39,0,0,0,.39-.68,3.07,3.07,0,0,0,.11-.73,3.68,3.68,0,0,0-.11-.74,1.43,1.43,0,0,0-.39-.67,1.56,1.56,0,0,0-.79-.51,3,3,0,0,0-1.31-.23Zm1.13.9h1.47a2.34,2.34,0,0,1,.62,0A1,1,0,0,1,283,20a1.33,1.33,0,0,1,.41.33,1,1,0,0,1,.16.62,1.22,1.22,0,0,1-.16.64A1.52,1.52,0,0,1,283,22l-.56.17a2,2,0,0,1-.62.05h-1.47Z"/></g></svg>