<svg width="172" height="40" viewBox="0 0 172 40" fill="none" xmlns="http://www.w3.org/2000/svg">
<g clip-path="url(#clip0_4460_157094)">
<path d="M11.9202 6.04664C11.4823 6.14237 11.1975 6.2734 10.5711 6.66323C9.87684 7.09203 9.37492 7.23026 8.68084 7.18056C8.07922 7.13806 7.5239 7.25144 7.10748 7.50305C6.65528 7.77584 6.38487 8.07008 6.01816 8.68653C5.78325 9.07637 5.55899 9.31738 5.31329 9.44135C5.21727 9.48738 4.93237 9.5937 4.67616 9.67883C3.2238 10.15 2.60075 10.8517 2.30888 12.3506C2.23773 12.712 2.10607 13.038 1.92442 13.3038C1.86392 13.3853 1.62191 13.6616 1.38344 13.9097C0.966887 14.3491 0.767489 14.6078 0.678578 14.8346C0.507721 15.274 0.486275 15.8587 0.618071 16.6418C0.731976 17.3185 0.767622 17.9104 0.710534 18.2328C0.657269 18.5269 0.575325 18.7714 0.343965 19.3349C0.0164552 20.1109 -0.0653532 20.6034 0.0485513 21.0853C0.13036 21.4326 0.279912 21.6983 0.675027 22.2229C0.874291 22.4851 1.0879 22.8039 1.1484 22.9315C1.24455 23.1334 1.25875 23.1972 1.25875 23.463C1.2552 23.6863 1.23034 23.8493 1.15919 24.0831C0.881527 25.0045 0.895733 25.6246 1.2018 26.2448C1.4404 26.7231 1.77501 27.0739 2.48684 27.5984C3.09556 28.0413 3.23801 28.261 3.43372 29.0654C3.50502 29.3452 3.60827 29.6783 3.66877 29.8059C3.88593 30.2559 4.3843 30.628 4.97512 30.7805C5.11047 30.8122 5.45573 30.8513 5.81165 30.8655C6.79063 30.915 6.99713 31.0356 7.43486 31.8435C7.77316 32.4671 7.99741 32.7258 8.36043 32.9207C8.65585 33.0765 8.78765 33.1049 9.44622 33.1368C10.1759 33.1723 10.2684 33.2007 11.1299 33.6755C11.8277 34.0581 12.3367 34.09 13.4082 33.8243C13.9777 33.679 13.9919 33.6825 14.5935 33.8384C15.3197 34.0297 15.8679 34.0511 16.288 33.9022C16.4553 33.8455 16.8398 33.6542 17.1708 33.4699C17.63 33.2183 17.8257 33.1687 18.4878 33.1368C19.2924 33.0979 19.5451 33.0164 19.9047 32.6833C20.1218 32.4813 20.2107 32.3538 20.5134 31.8081C20.7946 31.3119 20.9334 31.1525 21.236 31.0037C21.4425 30.9009 21.4851 30.8974 22.0903 30.8655C22.8415 30.83 22.9767 30.8052 23.411 30.5997C23.8026 30.419 24.0944 30.1531 24.2511 29.8273C24.3045 29.7102 24.4148 29.3701 24.4895 29.0724C24.5715 28.7464 24.6712 28.4417 24.7388 28.3176C24.8669 28.0767 25.1517 27.8003 25.6073 27.4672C26.305 26.9605 26.7322 26.4183 26.8924 25.8336C27.0135 25.3907 26.9459 24.5473 26.7465 23.9946C26.6645 23.7713 26.6397 23.3709 26.6931 23.1477C26.7394 22.9528 26.9707 22.5771 27.2769 22.191C27.7432 21.6063 27.9211 21.1739 27.9176 20.6282C27.914 20.2313 27.8606 20.0258 27.526 19.1896C27.2127 18.3958 27.1808 18.2435 27.2021 17.634C27.2127 17.3434 27.259 16.9181 27.3124 16.6134C27.4655 15.7489 27.4228 15.1995 27.1737 14.6894C27.0775 14.4944 26.9458 14.3314 26.5649 13.9275C25.8814 13.2152 25.7355 12.9636 25.611 12.2939C25.4436 11.4045 25.0911 10.7525 24.5358 10.3166C24.1906 10.0437 23.8453 9.87015 23.2579 9.67883C22.4249 9.40591 22.3039 9.31385 21.8981 8.65829C21.5101 8.02744 21.1363 7.6554 20.6736 7.4357C20.2001 7.21247 20.0826 7.19116 19.271 7.18056C18.2779 7.16997 18.0251 7.09556 17.242 6.59235C16.6439 6.20972 16.199 6.04311 15.6578 6.00414C15.1738 5.97223 14.679 6.12105 14.3586 6.3975C14.2305 6.51088 14.0169 6.5747 13.8744 6.54279C13.821 6.52853 13.6537 6.44353 13.5114 6.34781C13.3654 6.25222 13.1447 6.13884 13.0201 6.09987C12.7247 6.00061 12.2335 5.97576 11.9202 6.04664ZM12.7389 6.63526C12.8386 6.65644 13.0024 6.73085 13.1056 6.7982C13.7428 7.23053 14.1842 7.24112 14.7787 6.83717C15.3766 6.42616 16.0531 6.53247 17.0818 7.19509C17.2668 7.31553 17.5338 7.45729 17.6727 7.51758C18.1568 7.71596 18.2886 7.74081 19.1643 7.76565C20.1004 7.79403 20.2143 7.81874 20.6415 8.10226C20.9227 8.28652 21.1007 8.49562 21.3712 8.95267C21.7807 9.64367 22.133 9.9413 22.7774 10.1433C23.8097 10.4623 24.244 10.7316 24.5963 11.2667C24.817 11.5998 24.899 11.8195 25.0235 12.4253C25.1909 13.2297 25.383 13.5592 26.1555 14.3707C26.6075 14.8455 26.7037 15.0015 26.7856 15.3912C26.8533 15.6996 26.8355 15.9405 26.7073 16.6457C26.6574 16.9185 26.6075 17.3508 26.5969 17.6166C26.572 18.2367 26.6254 18.5061 26.9315 19.2997C27.2519 20.1254 27.3339 20.3982 27.3339 20.6392C27.3339 21.0326 27.1487 21.4046 26.6004 22.0992C26.3726 22.3862 26.1448 22.8327 26.0914 23.1019C26.0238 23.4209 26.0451 23.637 26.2018 24.2253C26.3371 24.7355 26.3513 24.8348 26.3513 25.2174C26.3513 25.5824 26.3407 25.6709 26.2694 25.8375C26.095 26.2521 25.7105 26.6809 25.1588 27.0637C24.4006 27.5916 24.1514 27.9601 23.9165 28.9027C23.7563 29.5334 23.6886 29.6787 23.4821 29.8594C23.1369 30.1535 22.7453 30.2669 22.0761 30.2669C21.0295 30.2669 20.4848 30.5859 20.0186 31.4682C19.5415 32.3754 19.3102 32.5312 18.406 32.5526C17.7297 32.5667 17.3986 32.6659 16.6439 33.0805C16.1349 33.3605 16.0103 33.3994 15.6223 33.3959C15.245 33.3959 14.9994 33.3534 14.5544 33.2152C14.1343 33.0875 13.8389 33.0911 13.3085 33.2364C12.7852 33.3816 12.3117 33.4384 12.0376 33.3888C11.8989 33.364 11.6033 33.2364 11.1548 33.0131C10.3646 32.6199 10.1759 32.5667 9.50672 32.549C8.63454 32.5312 8.35688 32.3505 7.95111 31.5426C7.48116 30.6071 6.92584 30.2669 5.85795 30.2669C5.18163 30.2669 4.77941 30.1465 4.44125 29.8488C4.2383 29.6681 4.15635 29.5015 4.05324 29.0621C3.80753 28.0133 3.59393 27.6766 2.79305 27.0813C2.21287 26.649 1.88891 26.3089 1.71082 25.9474L1.57916 25.6781L1.58271 25.1998C1.58626 24.7639 1.59691 24.6823 1.71082 24.2784C1.86392 23.7434 1.89957 23.4812 1.84972 23.1941C1.78921 22.8078 1.62546 22.4889 1.21969 21.9539C0.749731 21.3373 0.628724 21.0963 0.607418 20.7348C0.589527 20.4089 0.64293 20.2034 0.956236 19.4061C1.08079 19.0943 1.2089 18.7258 1.2481 18.5911C1.38344 18.0843 1.36911 17.4075 1.19825 16.5359C1.10224 16.0468 1.095 15.4834 1.18049 15.207C1.2623 14.9377 1.37621 14.7818 1.81052 14.3317C2.56169 13.5592 2.75385 13.212 2.91405 12.3687C3.04216 11.7061 3.24512 11.2914 3.64023 10.9017C3.94643 10.6004 4.27039 10.4304 4.98933 10.1929C5.52334 10.0192 5.67289 9.95203 5.87571 9.79601C6.06801 9.6472 6.36697 9.27515 6.58058 8.91723C6.83338 8.49209 7.02909 8.2652 7.29965 8.09167C7.71252 7.82228 7.84431 7.79403 8.76975 7.76565C9.86619 7.73021 10.1439 7.65227 10.952 7.13127C11.6675 6.6707 12.2085 6.52147 12.7389 6.63526Z" fill="#999999"/>
<path d="M16.0204 8.11978C15.8531 8.27566 15.8923 8.51314 16.0988 8.60873C16.2127 8.66549 16.3836 8.61579 16.4406 8.50595C16.5937 8.22257 16.2519 7.90714 16.0204 8.11978Z" fill="#999999"/>
<path d="M11.9204 9.59015C10.7208 9.79559 9.71698 10.1323 8.69881 10.6673C8.11153 10.9757 7.29631 11.5071 7.15741 11.6737C7.07205 11.7729 7.04706 11.9395 7.08981 12.0848C7.13255 12.223 7.41021 12.5241 9.05486 14.2144C9.34673 14.5155 9.9661 15.1534 10.4253 15.6318C12.2479 17.5276 12.3689 17.6445 12.522 17.687C12.6465 17.7189 12.6928 17.7154 12.8245 17.6551C13.1165 17.5276 13.0951 17.8394 13.0951 13.6013V9.83103L13.0133 9.71059C12.853 9.47324 12.6928 9.45545 11.9204 9.59015ZM11.5644 11.8367C11.5858 11.8827 11.6 12.3221 11.6 13.0238C11.6 13.9911 11.5929 14.147 11.543 14.1932C11.5146 14.225 11.4683 14.2498 11.4434 14.2498C11.4149 14.2498 11.2547 14.101 11.0803 13.9167C10.9059 13.7325 10.5427 13.3569 10.2759 13.0804C10.0017 12.8041 9.78459 12.549 9.78459 12.5136C9.78459 12.3328 10.5108 11.9501 11.1016 11.8261C11.4291 11.7556 11.5181 11.7587 11.5644 11.8367Z" fill="#999999"/>
<path d="M15.0673 9.55484C14.8217 9.68234 14.8359 9.42015 14.8465 13.6547L14.8572 17.4675L14.9427 17.5597C15.0566 17.6801 15.2452 17.7297 15.409 17.6872C15.5585 17.6482 15.7044 17.5029 18.3101 14.7992C18.7622 14.3314 19.4991 13.5695 19.9477 13.1054C20.3997 12.6412 20.7842 12.2266 20.809 12.184C20.834 12.1415 20.8518 12.0317 20.8553 11.9361C20.8553 11.7872 20.8411 11.7553 20.7166 11.6312C20.6417 11.5568 20.3997 11.3761 20.1755 11.2308C18.9011 10.391 17.616 9.87719 16.128 9.61146C15.5264 9.50162 15.2025 9.48777 15.0673 9.55484ZM17.0286 11.8758C17.4986 11.9962 18.1499 12.3647 18.1499 12.51C18.1499 12.549 17.8722 12.8609 17.4771 13.2648C17.1106 13.6404 16.7616 14.0019 16.7082 14.0657C16.5766 14.2216 16.4947 14.2605 16.4057 14.2145C16.3381 14.1791 16.3345 14.1401 16.3345 13.0168C16.3345 12.1344 16.3452 11.8439 16.3808 11.8084C16.4306 11.7556 16.6335 11.7765 17.0286 11.8758Z" fill="#999999"/>
<path d="M4.42799 10.8903C4.25359 10.9896 4.21794 11.1666 4.3425 11.3226C4.39945 11.3935 4.44575 11.4147 4.5561 11.4147C4.73406 11.4147 4.83731 11.3191 4.83731 11.149C4.83731 10.9225 4.6166 10.784 4.42799 10.8903Z" fill="#999999"/>
<path d="M23.185 10.9331C23.0532 11.0429 23.0461 11.252 23.1671 11.3476C23.2847 11.4433 23.4733 11.4363 23.5801 11.3264C23.6976 11.2095 23.6941 11.0784 23.5659 10.9509C23.4377 10.8267 23.3167 10.8197 23.185 10.9331Z" fill="#999999"/>
<path d="M23.8276 11.7869C23.582 12.0315 23.9095 12.407 24.1943 12.2085C24.4398 12.0385 24.3117 11.6982 24.002 11.6982C23.9521 11.6982 23.8739 11.7376 23.8276 11.7869Z" fill="#999999"/>
<path d="M5.41743 13.2401C5.27853 13.3004 4.95457 13.6973 4.57011 14.2855C3.85827 15.3698 3.39897 16.4505 3.10711 17.7227C2.97545 18.3074 2.92559 18.644 2.954 18.7787C2.98255 18.924 3.10355 19.055 3.24955 19.1012C3.31006 19.1223 4.30679 19.1542 5.46004 19.172C6.61697 19.1932 8.30069 19.2287 9.20496 19.25C10.7996 19.2889 10.8566 19.2889 10.9813 19.2216C11.2091 19.1047 11.3051 18.8247 11.1949 18.6156C11.1129 18.4668 5.86594 13.2649 5.75204 13.2224C5.62024 13.1764 5.55619 13.1799 5.41743 13.2401ZM7.09404 16.5782C7.77392 17.2549 7.89847 17.3967 7.89136 17.4746L7.88071 17.5633L6.68813 17.5561C5.60249 17.5455 5.49213 17.542 5.44938 17.4852C5.40308 17.4215 5.40664 17.3683 5.49924 16.9998C5.61314 16.5357 6.051 15.7738 6.20765 15.7738C6.26105 15.7738 6.53162 16.0182 7.09404 16.5782Z" fill="#999999"/>
<path d="M22.1358 13.2361C22.086 13.261 20.8508 14.4728 19.3878 15.9292C16.4794 18.8278 16.6183 18.6649 16.7286 18.9766C16.7607 19.0653 16.8248 19.1503 16.903 19.2034L17.0276 19.2885L17.793 19.2672C18.2131 19.2566 19.9216 19.2212 21.584 19.1893C24.9053 19.129 24.7772 19.1397 24.916 18.9129C25.0014 18.7712 25.0014 18.5975 24.9088 18.144C24.5671 16.4254 23.9121 14.9547 22.9047 13.6508C22.5595 13.2042 22.378 13.1051 22.1358 13.2361ZM21.9614 16.0142C22.353 16.5813 22.6235 17.453 22.4349 17.5239C22.4028 17.5345 21.8617 17.5556 21.2281 17.5699L20.0783 17.5911L20.0355 17.5131C19.9965 17.4352 20.0428 17.3821 20.8224 16.6024C21.3633 16.0639 21.6802 15.7734 21.7265 15.7734C21.7763 15.7734 21.851 15.8513 21.9614 16.0142Z" fill="#999999"/>
<path d="M1.11524 20.3622C0.933733 20.5394 1.06184 20.8405 1.32174 20.8405C1.4784 20.8405 1.59585 20.7201 1.59585 20.5535C1.59585 20.2984 1.29675 20.1779 1.11524 20.3622Z" fill="#999999"/>
<path d="M26.4337 20.3162C26.2877 20.4295 26.2948 20.7236 26.4444 20.8051C26.5512 20.8619 26.7149 20.8476 26.8039 20.7732C26.8679 20.7236 26.8893 20.6704 26.8893 20.557C26.8893 20.4437 26.8679 20.3906 26.8039 20.3409C26.7077 20.2629 26.5226 20.2523 26.4337 20.3162Z" fill="#999999"/>
<path d="M6.68707 20.9187C5.07096 20.9365 3.66136 20.9576 3.55456 20.9684C3.39081 20.986 3.34095 21.0109 3.21995 21.1278L3.08105 21.2695L3.10249 21.5601C3.16655 22.4211 3.54746 23.7252 4.03859 24.7598C4.36965 25.4579 5.01756 26.4608 5.38782 26.8542C5.56223 27.0349 5.57643 27.0419 5.75794 27.0419C5.94669 27.0419 5.95024 27.0384 6.2208 26.7797C7.21753 25.8088 11.4429 21.5778 11.4607 21.5247C11.5497 21.305 11.4429 21.0356 11.2187 20.9187C11.1332 20.8726 11.2721 20.8726 6.68707 20.9187ZM8.03261 22.6518C8.04327 22.7298 7.92582 22.8539 7.23884 23.52C6.79388 23.9453 6.40941 24.3103 6.38101 24.3244C6.29551 24.3739 6.19226 24.2819 6.0285 24.0054C5.74019 23.5129 5.51238 22.7262 5.61918 22.5952C5.65838 22.549 5.81845 22.542 6.84372 22.549L8.02196 22.5598L8.03261 22.6518Z" fill="#999999"/>
<path d="M16.6666 20.9431C16.5242 21.0318 16.4424 21.1877 16.4424 21.3684C16.4424 21.4818 16.4708 21.542 16.5882 21.6803C16.7912 21.9141 21.8139 26.9033 21.9243 26.9814C22.0346 27.0558 22.3087 27.0593 22.4155 26.9884C22.5793 26.8715 23.1311 26.1132 23.4692 25.5391C24.1242 24.4265 24.5407 23.2961 24.7685 22.0026C24.8788 21.3862 24.8717 21.2869 24.708 21.1238C24.5941 21.0105 24.5442 20.9857 24.3805 20.968C24.2737 20.9574 23.1133 20.9396 21.7997 20.929C20.4897 20.9184 18.8237 20.9006 18.0976 20.89C16.8161 20.8722 16.777 20.8722 16.6666 20.9431ZM22.3087 22.5838C22.3692 22.6441 22.3621 22.7326 22.2766 23.0729C22.1237 23.6752 21.7641 24.3485 21.5932 24.3485C21.5292 24.3485 19.8597 22.7326 19.8597 22.6652C19.8597 22.5483 19.9415 22.5413 21.1055 22.5413C21.9599 22.5413 22.2766 22.5519 22.3087 22.5838Z" fill="#999999"/>
<path d="M1.75755 21.3898C1.49778 21.645 1.85725 22.0207 2.14556 21.7938C2.21686 21.7372 2.23816 21.6911 2.23816 21.5883C2.23816 21.3261 1.94275 21.202 1.75755 21.3898Z" fill="#999999"/>
<path d="M25.8106 21.3263C25.7359 21.3547 25.6541 21.546 25.6825 21.631C25.7645 21.9039 26.0919 21.957 26.2165 21.7196C26.2842 21.5885 26.2521 21.4291 26.1488 21.3547C26.0741 21.3014 25.9032 21.2876 25.8106 21.3263Z" fill="#999999"/>
<path d="M12.5794 22.5737C12.5224 22.6092 12.3053 22.8147 12.0988 23.0309C11.8924 23.2471 11.1484 24.0125 10.4436 24.7282C9.73875 25.444 8.88802 26.3121 8.55341 26.6524C7.54958 27.6764 7.20418 28.0379 7.17932 28.0981C7.13302 28.2114 7.15077 28.4419 7.21497 28.541C7.29322 28.6651 7.71333 28.9768 8.26141 29.3136C9.42545 30.0364 10.6679 30.5006 12.0917 30.7451C12.7966 30.8656 12.9532 30.8656 13.1134 30.7238C13.1846 30.66 13.2522 30.5574 13.2736 30.4793C13.2985 30.3872 13.3056 29.0867 13.302 26.5921C13.2914 22.9422 13.2878 22.8395 13.2202 22.7296C13.092 22.5171 12.7895 22.4427 12.5794 22.5737ZM11.6361 25.9968C11.7001 26.0748 11.6611 28.3001 11.5933 28.378C11.4225 28.5836 9.85621 27.9138 9.85621 27.6339C9.85621 27.5417 11.4404 25.9436 11.5328 25.9436C11.5649 25.9436 11.6112 25.9684 11.6361 25.9968Z" fill="#999999"/>
<path d="M14.8651 22.5698C14.6515 22.7116 14.6657 22.421 14.6622 26.6449C14.6622 30.8971 14.6515 30.6633 14.8758 30.7802C15.0147 30.8511 15.2354 30.8475 15.748 30.7624C16.7767 30.5889 17.6738 30.3159 18.5744 29.8979C19.4003 29.5186 20.3791 28.9057 20.6639 28.5938C20.7636 28.484 20.785 28.4309 20.785 28.3068C20.7813 28.0587 21.084 28.3884 17.6559 24.8979C17.3107 24.5471 16.6628 23.888 16.2142 23.4309C15.7693 22.9774 15.36 22.5841 15.3066 22.5557C15.1784 22.4883 14.9826 22.4954 14.8651 22.5698ZM17.2644 26.7583C17.9087 27.3996 18.0832 27.591 18.0725 27.6512C18.0582 27.754 17.599 28.0623 17.2324 28.2112C17.0829 28.2748 16.8373 28.3529 16.6842 28.3812C16.4349 28.4344 16.403 28.4344 16.3531 28.3847C16.3068 28.3422 16.2962 28.1403 16.2747 27.1693C16.2499 25.9539 16.2534 25.9469 16.3994 25.9433C16.4243 25.9433 16.8159 26.3118 17.2644 26.7583Z" fill="#999999"/>
<path d="M24.754 25.7487C24.697 25.8019 24.665 25.8763 24.665 25.9436C24.665 26.1952 24.9889 26.3228 25.1633 26.1385C25.4196 25.8656 25.0174 25.483 24.754 25.7487Z" fill="#999999"/>
<path d="M5.22887 28.9839C5.16468 29.0512 5.12207 29.1291 5.12207 29.1858C5.12207 29.2921 5.29647 29.4871 5.38907 29.4871C5.49942 29.4871 5.64884 29.3843 5.68094 29.285C5.74499 29.083 5.65949 28.9414 5.44957 28.8987C5.35697 28.8811 5.32133 28.8952 5.22887 28.9839Z" fill="#999999"/>
<path d="M17.723 31.6945C17.5309 31.7937 17.506 32.0453 17.6768 32.1799C17.8619 32.3252 18.1004 32.2331 18.136 31.9992C18.1752 31.7764 17.926 31.5917 17.723 31.6945Z" fill="#999999"/>
</g>
<path d="M35.5322 30.6393C38.3493 30.551 40.7555 30.5216 43.1617 30.5216C45.5679 30.5216 47.8861 30.551 50.6738 30.6393C50.7618 28.6969 50.8205 26.7839 50.8205 24.8709H50.4097C49.8228 26.519 48.5903 28.0494 47.71 28.8146C46.7123 29.6387 45.9787 29.8447 44.4822 29.8447C41.4304 29.8447 41.225 27.2254 41.225 25.0181V16.336C41.225 12.5101 41.8705 10.8619 44.0127 10.4499V10.0379C42.6042 10.1262 41.2543 10.1556 39.8458 10.1556C38.4666 10.1556 37.0581 10.1262 35.6496 10.0379V10.4499C37.7917 10.8619 38.2906 12.6572 38.2906 16.336V24.3412C38.2906 27.9317 37.4689 29.8447 35.5322 30.2273V30.6393Z" fill="#999999"/>
<path d="M60.4135 30.0507C57.4497 30.0507 56.4814 27.1959 56.4814 23.6643V22.8402H65.7248C65.6661 17.6898 62.6436 16.0123 59.7679 16.0123C55.9238 16.0123 53.1655 18.9554 53.1655 23.5465C53.1655 28.638 56.5401 30.9925 59.7679 30.9925C62.5263 30.9925 64.7564 29.1972 65.4607 26.4896L64.8738 26.3425C63.8761 29.1678 61.9394 30.0507 60.4135 30.0507ZM59.5625 16.5421C61.3232 16.5421 62.2622 18.6611 62.3209 22.1927H56.4814C56.5988 19.544 57.4791 16.5421 59.5625 16.5421Z" fill="#999999"/>
<path d="M90.0776 26.6368V21.0449C90.0776 17.5133 88.6691 16.0123 86.5563 16.0123C84.4435 16.0123 82.4775 17.4838 81.5678 19.544C81.2157 17.0424 79.9246 16.0123 78.1052 16.0123C75.787 16.0123 73.821 17.5721 72.9407 19.75C73.0874 19.0437 73.1754 18.2785 73.1754 17.631V16.1595C71.5028 16.4243 69.6835 16.4538 67.8935 16.4832V16.8952C69.8595 17.1601 70.1236 18.6611 70.1236 20.5152V26.4896C70.1236 28.8735 69.4487 29.727 67.8641 30.2273V30.6393C69.0966 30.551 70.241 30.5216 71.3854 30.5216C72.5298 30.5216 73.7036 30.551 74.9067 30.6393V30.2273C73.3221 29.7858 73.058 29.0206 73.058 26.8722V22.1339C73.058 19.7794 74.9067 17.1601 76.8728 17.1601C78.4573 17.1601 78.6334 19.132 78.6334 20.7212V26.6662C78.6334 28.5792 78.3987 29.8153 76.7554 30.2273V30.6393C77.9292 30.551 79.0442 30.4922 80.1593 30.4922C81.2744 30.4922 82.3601 30.551 83.4458 30.6393V30.2273C81.9493 29.7858 81.6559 28.3437 81.6559 26.6368V21.5158C81.8906 19.4557 83.6219 17.1601 85.3532 17.1601C86.8498 17.1601 87.0552 19.1025 87.0552 20.9272V26.6662C87.0552 28.6675 86.7617 29.8153 85.1185 30.2273V30.6393C86.3509 30.551 87.554 30.4922 88.7571 30.4922C89.9602 30.4922 91.1047 30.551 92.1904 30.6393V30.2273C90.3711 29.7858 90.0776 28.3437 90.0776 26.6368Z" fill="#999999"/>
<path d="M100.821 30.9631C104.665 30.9631 107.57 28.1083 107.57 23.5171C107.57 18.8965 104.665 16.0123 100.821 16.0123C96.9476 16.0123 94.0718 18.8965 94.0718 23.5171C94.0718 28.1083 96.9476 30.9631 100.821 30.9631ZM100.821 30.4627C98.8256 30.4627 97.4464 28.3732 97.4464 23.5171C97.4464 18.6022 98.8256 16.5421 100.821 16.5421C102.787 16.5421 104.166 18.6022 104.166 23.5171C104.166 28.3732 102.787 30.4627 100.821 30.4627Z" fill="#999999"/>
<path d="M123.861 26.6368V21.1038C123.861 17.3955 122.277 16.0123 119.988 16.0123C117.523 16.0123 115.528 17.7487 114.647 20.0737C114.794 19.3085 114.911 18.3962 114.911 17.5133V16.1595C113.297 16.3949 111.39 16.4832 109.659 16.4832V16.8952C111.39 17.1601 111.918 18.3668 111.918 20.5446V26.6956C111.918 28.9324 111.126 29.727 109.659 30.2273V30.6393C110.862 30.551 112.065 30.5216 113.268 30.5216C114.471 30.5216 115.674 30.551 116.877 30.6393V30.2273C115.117 29.9919 114.853 28.6969 114.853 26.6956V21.869C114.853 19.8677 116.76 17.1601 118.814 17.1601C120.722 17.1601 120.81 19.4557 120.81 20.8684V26.6368C120.81 28.5498 120.545 29.8153 118.844 30.2273V30.6393C119.988 30.551 121.162 30.5216 122.335 30.5216C123.509 30.5216 124.712 30.551 125.886 30.6393V30.2273C123.979 29.7858 123.861 28.226 123.861 26.6368Z" fill="#999999"/>
<path d="M138.788 26.1364V21.1332C138.788 17.837 136.91 16.0123 133.594 16.0123C130.718 16.0123 128.84 17.2484 128.019 19.1025C128.635 20.0149 129.31 20.8978 130.073 21.6924L130.454 21.5747C130.484 19.1025 131.159 16.5126 133.33 16.5126C134.973 16.5126 135.824 18.0136 135.824 20.7506V22.5753C131.305 22.8991 127.491 24.1057 127.491 27.4608C127.491 29.8447 129.427 30.9631 131.364 30.9631C133.477 30.9631 135.267 29.521 136.03 27.402C135.971 27.7551 135.942 28.1672 135.942 28.5203C135.942 29.2561 136.059 30.0802 136.265 30.8453C137.644 30.6393 138.817 30.6393 140.901 30.6393V30.2273C139.258 29.7858 138.788 28.7558 138.788 26.1364ZM132.45 29.9919C131.247 29.9919 130.66 28.9029 130.66 27.1077C130.66 24.2235 132.244 23.4288 135.824 23.1639V25.6361C135.824 27.3725 134.21 29.9919 132.45 29.9919Z" fill="#999999"/>
<path d="M155.312 26.6368V9.00781C153.317 9.27269 151.615 9.39041 150.206 9.39041V9.80244C152.202 10.0673 152.437 11.1562 152.437 13.4813V16.1006C152.437 16.5126 152.466 16.9541 152.525 17.3955C151.703 16.5421 150.617 16.0123 149.297 16.0123C146.392 16.0123 142.665 18.2785 142.665 23.4583C142.665 27.9906 145.365 30.9631 148.416 30.9631C150.47 30.9631 151.967 29.5504 152.613 27.6668V28.3143C152.613 29.315 152.701 30.139 152.877 30.9042C154.227 30.6688 155.547 30.6393 157.513 30.6393V30.2273C155.899 29.6681 155.312 28.7852 155.312 26.6368ZM148.945 30.2273C147.008 30.2273 146.04 27.608 146.04 23.4877C146.04 19.3085 147.067 16.6892 149.619 16.6892C150.705 16.6892 151.703 17.2484 152.437 18.249V25.1358C152.437 27.7846 150.881 30.2273 148.945 30.2273Z" fill="#999999"/>
<path d="M166.684 30.0507C163.72 30.0507 162.752 27.1959 162.752 23.6643V22.8402H171.995C171.936 17.6898 168.914 16.0123 166.038 16.0123C162.194 16.0123 159.436 18.9554 159.436 23.5465C159.436 28.638 162.81 30.9925 166.038 30.9925C168.797 30.9925 171.027 29.1972 171.731 26.4896L171.144 26.3425C170.146 29.1678 168.21 30.0507 166.684 30.0507ZM165.833 16.5421C167.593 16.5421 168.532 18.6611 168.591 22.1927H162.752C162.869 19.544 163.749 16.5421 165.833 16.5421Z" fill="#999999"/>
<defs>
<clipPath id="clip0_4460_157094">
<rect width="27.9176" height="28" fill="white" transform="translate(0 6)"/>
</clipPath>
</defs>
</svg>
