<svg width="74" height="40" viewBox="0 0 74 40" fill="none" xmlns="http://www.w3.org/2000/svg">
<path d="M54.4985 16.1392C54.245 16.6742 53.9885 17.2077 53.738 17.7441C52.2748 20.8803 50.8087 24.0165 49.3573 27.1571C49.2195 27.4548 49.0505 27.5624 48.7214 27.5535C47.8942 27.5299 47.067 27.5299 46.2398 27.5535C45.8736 27.5638 45.7402 27.4784 45.7105 27.076C45.4214 23.0806 45.0997 19.0867 44.7973 15.0914C44.6357 12.9691 44.4934 10.8454 44.3437 8.72322C44.3378 8.63774 44.3437 8.55079 44.3437 8.43141H48.2915C48.5064 12.0583 48.7214 15.6956 48.9363 19.3314C48.9704 19.3446 49.006 19.3579 49.0401 19.3697C49.1202 19.2341 49.215 19.1044 49.2773 18.9615C50.7775 15.5526 52.2718 12.1409 53.778 8.73353C53.8388 8.59795 53.9989 8.41225 54.116 8.4093C55.2812 8.38573 56.4464 8.39457 57.6502 8.39457C57.8992 11.9758 58.1453 15.5232 58.3914 19.072C58.4255 19.0838 58.4596 19.097 58.4937 19.1088C58.5589 18.9983 58.633 18.8922 58.6879 18.7758C60.0503 15.8268 61.5535 12.9529 63.2761 10.1955C64.8134 7.73285 66.4782 5.36303 68.5432 3.30271C69.8418 2.00727 71.2472 0.842993 73.0143 0.210747C73.3256 0.0987412 73.6488 0.019159 74.0001 0C73.416 0.654352 72.8186 1.29544 72.2523 1.96453C70.1339 4.4714 68.4231 7.24945 66.8592 10.1174C64.0217 15.3213 61.7314 20.7668 59.7048 26.3244C59.5447 26.7636 59.4958 27.3752 59.1801 27.5874C58.8406 27.8144 58.2446 27.667 57.7614 27.6744C57.2143 27.6817 56.6673 27.667 56.1218 27.6803C55.889 27.6862 55.7793 27.6287 55.7556 27.3722C55.5481 25.166 55.3287 22.9613 55.1122 20.755C54.9684 19.2798 54.8246 17.8046 54.6793 16.3293C54.6734 16.2763 54.6438 16.2247 54.6245 16.1731C54.583 16.1613 54.5415 16.151 54.5 16.1392H54.4985Z" fill="#B3B3B3"/>
<path d="M4.23433 19.1161C4.36478 18.8626 4.44039 18.7314 4.50117 18.5929C5.95397 15.2902 7.40381 11.986 8.86402 8.68622C8.91739 8.56537 9.07749 8.41357 9.19016 8.41062C10.2501 8.38999 11.3115 8.39883 12.4041 8.39883C12.8637 11.9152 13.3173 15.3933 13.7724 18.8714C13.811 18.8788 13.8495 18.8876 13.8866 18.895C13.974 18.7093 14.0733 18.5295 14.146 18.3379C15.3408 15.156 16.5357 11.9742 17.7172 8.78938C17.8254 8.4961 17.9618 8.3841 18.2894 8.38999C19.4235 8.4121 20.5591 8.39883 21.7584 8.39883C21.4322 9.36415 21.1283 10.2779 20.817 11.1872C19.2486 15.7603 17.6772 20.3319 16.1073 24.9035C15.8315 25.7082 15.5469 26.5099 15.283 27.3176C15.1985 27.574 15.0814 27.6919 14.7864 27.686C13.8851 27.6654 12.9837 27.6639 12.0839 27.6831C11.7607 27.6904 11.6673 27.5725 11.6125 27.266C11.1603 24.7267 10.683 22.1903 10.219 19.6525C10.0248 18.587 9.8454 17.5185 9.55929 16.4191C9.4911 16.5458 9.40956 16.6667 9.35471 16.7993C8.09018 19.8765 6.82862 22.9537 5.56557 26.0324C5.3936 26.4525 5.20533 26.8666 5.05561 27.2955C4.95183 27.5917 4.78432 27.6963 4.46559 27.6875C3.59391 27.6654 2.72223 27.6624 1.85055 27.6845C1.53627 27.6919 1.43546 27.5769 1.41471 27.291C1.35541 26.4274 1.28129 25.5638 1.21458 24.7001C0.907711 20.7357 0.597879 16.7713 0.293976 12.8069C0.190205 11.4613 0.0982932 10.1143 0.0034164 8.76875C-0.00399585 8.66853 0.0034164 8.56832 0.0034164 8.43863C0.139802 8.42389 0.252468 8.40031 0.365135 8.40031C1.28129 8.39736 2.19744 8.40768 3.11211 8.39294C3.40564 8.38852 3.52127 8.46515 3.53758 8.77906C3.68286 11.4009 3.84741 14.0212 4.00603 16.6416C4.04754 17.3299 4.09053 18.0181 4.13797 18.7063C4.1439 18.7977 4.17948 18.8876 4.23581 19.1175L4.23433 19.1161Z" fill="#B3B3B3"/>
<path d="M30.6712 28.2243C28.738 28.2081 26.8702 27.9384 25.1594 26.9746C23.2678 25.909 22.1545 24.2702 21.7053 22.1922C20.6839 17.4629 22.6659 12.0394 27.2437 9.44707C29.9537 7.91288 32.8652 7.57686 35.9012 8.103C37.4697 8.37417 38.9077 8.93862 40.1099 10.0204C41.4456 11.223 42.1201 12.763 42.3558 14.4903C42.6805 16.8616 42.4092 19.1842 41.4545 21.3875C39.7393 25.3446 36.644 27.5066 32.3908 28.0902C31.8215 28.1683 31.2434 28.1816 30.6697 28.2243H30.6712ZM37.8937 16.2485C37.8699 15.9036 37.8685 15.5352 37.8136 15.1741C37.5557 13.4778 36.767 12.1544 35.0726 11.5413C32.8118 10.7248 30.0574 11.4293 28.4845 13.2494C26.5114 15.5352 25.7302 18.2057 26.1601 21.1753C26.3958 22.8082 27.3001 24.0108 28.9337 24.5767C31.0951 25.3254 33.8154 24.6342 35.3587 22.9468C37.0902 21.0515 37.8062 18.7819 37.8951 16.247L37.8937 16.2485Z" fill="#B3B3B3"/>
<path d="M1.85284 29.7747H58.9742C58.9742 29.7747 45.809 31.8481 30.4135 31.9216C15.0181 31.9951 1.85284 29.7747 1.85284 29.7747Z" fill="#B3B3B3"/>
<path d="M2.78204 38.3305L3.4016 38.2767C3.43997 38.6783 3.60135 38.9689 3.88574 39.1484C4.17013 39.3257 4.49289 39.4143 4.85402 39.4143C5.23546 39.4143 5.5379 39.3391 5.76135 39.1888C5.98706 39.0384 6.09991 38.8343 6.09991 38.5762C6.09991 38.4147 6.05251 38.2767 5.95771 38.1622C5.86292 38.0478 5.72975 37.9592 5.55822 37.8963C5.38894 37.8313 5.06844 37.7426 4.59671 37.6304C4.19496 37.534 3.88913 37.4364 3.67922 37.3376C3.47157 37.2367 3.30117 37.093 3.168 36.9068C3.03709 36.7206 2.97164 36.504 2.97164 36.2572C2.97164 35.8601 3.12963 35.5347 3.44562 35.2812C3.7616 35.0254 4.18593 34.8975 4.71859 34.8975C5.28511 34.8975 5.73201 35.0287 6.05928 35.2913C6.38881 35.5515 6.56373 35.9117 6.58405 36.3717L5.95433 36.4188C5.90242 35.7883 5.50179 35.473 4.75245 35.473C4.38906 35.473 4.10693 35.5392 3.90605 35.6716C3.70518 35.8017 3.60474 35.9824 3.60474 36.2135C3.60474 36.4154 3.68035 36.5691 3.83157 36.6746C3.98054 36.7823 4.29765 36.8911 4.78292 37.0011C5.28398 37.1132 5.65865 37.2221 5.90693 37.3275C6.15746 37.4307 6.35721 37.5867 6.50618 37.7954C6.6574 38.0018 6.73301 38.243 6.73301 38.519C6.73301 38.9543 6.56373 39.31 6.22517 39.5859C5.88887 39.8619 5.44649 39.9999 4.89803 39.9999C4.2006 39.9999 3.67584 39.844 3.32374 39.5321C2.97164 39.218 2.79107 38.8174 2.78204 38.3305Z" fill="#B3B3B3"/>
<path d="M8.16795 39.9158V34.9816H8.82476V37.4285L11.2895 34.9816H12.1799L10.0977 36.9809L12.2713 39.9158H11.4046L9.63729 37.4184L8.82476 38.206V39.9158H8.16795Z" fill="#B3B3B3"/>
<path d="M13.4794 39.9158V34.9816H14.1362V39.9158H13.4794Z" fill="#B3B3B3"/>
<path d="M15.8826 39.9158V34.9816H16.5563L19.1632 38.8556V34.9816H19.7929V39.9158H19.1192L16.5123 36.0384V39.9158H15.8826Z" fill="#B3B3B3"/>
<path d="M23.6954 38.3305L24.315 38.2767C24.3534 38.6783 24.5147 38.9689 24.7991 39.1484C25.0835 39.3257 25.4063 39.4143 25.7674 39.4143C26.1488 39.4143 26.4513 39.3391 26.6747 39.1888C26.9004 39.0384 27.0133 38.8343 27.0133 38.5762C27.0133 38.4147 26.9659 38.2767 26.8711 38.1622C26.7763 38.0478 26.6431 37.9592 26.4716 37.8963C26.3023 37.8313 25.9818 37.7426 25.5101 37.6304C25.1083 37.534 24.8025 37.4364 24.5926 37.3376C24.385 37.2367 24.2145 37.093 24.0814 36.9068C23.9505 36.7206 23.885 36.504 23.885 36.2572C23.885 35.8601 24.043 35.5347 24.359 35.2812C24.675 35.0254 25.0993 34.8975 25.632 34.8975C26.1985 34.8975 26.6454 35.0287 26.9727 35.2913C27.3022 35.5515 27.4771 35.9117 27.4974 36.3717L26.8677 36.4188C26.8158 35.7883 26.4152 35.473 25.6658 35.473C25.3024 35.473 25.0203 35.5392 24.8194 35.6716C24.6186 35.8017 24.5181 35.9824 24.5181 36.2135C24.5181 36.4154 24.5937 36.5691 24.745 36.6746C24.8939 36.7823 25.211 36.8911 25.6963 37.0011C26.1974 37.1132 26.572 37.2221 26.8203 37.3275C27.0708 37.4307 27.2706 37.5867 27.4196 37.7954C27.5708 38.0018 27.6464 38.243 27.6464 38.519C27.6464 38.9543 27.4771 39.31 27.1386 39.5859C26.8023 39.8619 26.3599 39.9999 25.8114 39.9999C25.114 39.9999 24.5892 39.844 24.2371 39.5321C23.885 39.218 23.7045 38.8174 23.6954 38.3305Z" fill="#B3B3B3"/>
<path d="M32.6565 38.1858L33.3133 38.3507C33.1779 38.8892 32.9273 39.2987 32.5617 39.5792C32.1983 39.8597 31.7638 39.9999 31.2583 39.9999C30.457 39.9999 29.8679 39.7497 29.491 39.2494C29.1141 38.749 28.9256 38.1364 28.9256 37.4117C28.9256 36.6218 29.1434 36.0059 29.579 35.5639C30.0146 35.1196 30.5778 34.8975 31.2684 34.8975C31.765 34.8975 32.1836 35.0254 32.5245 35.2812C32.8675 35.5347 33.1023 35.8859 33.2287 36.3346L32.582 36.4861C32.3586 35.7995 31.9286 35.4562 31.2921 35.4562C30.7279 35.4562 30.3047 35.6334 30.0225 35.988C29.7426 36.3402 29.6027 36.807 29.6027 37.3881C29.6027 38.0859 29.7494 38.6031 30.0428 38.9397C30.3385 39.274 30.7256 39.4412 31.2041 39.4412C31.5675 39.4412 31.879 39.3358 32.1385 39.1248C32.4003 38.9139 32.573 38.6009 32.6565 38.1858Z" fill="#B3B3B3"/>
<path d="M34.7719 39.9158V34.9816H35.4287V39.9158H34.7719Z" fill="#B3B3B3"/>
<path d="M37.1752 39.9158V34.9816H40.7639V35.5639H37.832V37.0751H40.5777V37.654H37.832V39.3335H40.879V39.9158H37.1752Z" fill="#B3B3B3"/>
<path d="M42.3613 39.9158V34.9816H43.0351L45.6419 38.8556V34.9816H46.2717V39.9158H45.5979L42.991 36.0384V39.9158H42.3613Z" fill="#B3B3B3"/>
<path d="M51.4646 38.1858L52.1214 38.3507C51.986 38.8892 51.7354 39.2987 51.3698 39.5792C51.0064 39.8597 50.5719 39.9999 50.0664 39.9999C49.2651 39.9999 48.676 39.7497 48.2991 39.2494C47.9222 38.749 47.7337 38.1364 47.7337 37.4117C47.7337 36.6218 47.9515 36.0059 48.3871 35.5639C48.8227 35.1196 49.3859 34.8975 50.0765 34.8975C50.5731 34.8975 50.9917 35.0254 51.3326 35.2812C51.6756 35.5347 51.9104 35.8859 52.0368 36.3346L51.3901 36.4861C51.1667 35.7995 50.7367 35.4562 50.1002 35.4562C49.5359 35.4562 49.1128 35.6334 48.8306 35.988C48.5507 36.3402 48.4108 36.807 48.4108 37.3881C48.4108 38.0859 48.5575 38.6031 48.8509 38.9397C49.1466 39.274 49.5337 39.4412 50.0122 39.4412C50.3756 39.4412 50.687 39.3358 50.9466 39.1248C51.2084 38.9139 51.3811 38.6009 51.4646 38.1858Z" fill="#B3B3B3"/>
<path d="M53.492 39.9158V34.9816H57.0807V35.5639H54.1488V37.0751H56.8945V37.654H54.1488V39.3335H57.1958V39.9158H53.492Z" fill="#B3B3B3"/>
</svg>
